<?xml version="1.0" encoding="UTF-8" standalone="no"?>
<!DOCTYPE svg PUBLIC "-//W3C//DTD SVG 1.1//EN" "http://www.w3.org/Graphics/SVG/1.1/DTD/svg11.dtd">
<!-- Generated by graphviz version 7.1.0 (20230121.1956)
 -->
<!-- Title: HashiCat Deployment Pages: 1 -->
<svg width="1125pt" height="1152pt" viewBox="0.00 0.00 1125.30 1152.00" xmlns="http://www.w3.org/2000/svg"
    xmlns:xlink="http://www.w3.org/1999/xlink">
    <g id="graph0" class="graph" transform="scale(0.580353 0.580353) rotate(0) translate(144 1841)">
        <title>HashiCat Deployment</title>
        <text text-anchor="middle" x="825.5" y="-1673.8" font-family="Sans-Serif" font-size="24.00"
            fill="#2d3436">HashiCat Deployment</text>
        <!-- e6665d08518b41a5a7bde92d453a882a -->
        <g id="node1" class="node">
            <title>e6665d08518b41a5a7bde92d453a882a</title>
            <image
                xlink:href="https://raw.githubusercontent.com/interrupt-software/diagrams-as-code/main/icons/sample_01.svg"
                width="101px" height="101px" preserveAspectRatio="xMinYMin meet" x="1240" y="-1237" />
            <text text-anchor="middle" x="1290.5" y="-1121" font-family="Sans-Serif" font-size="10.00"
                fill="#2d3436">aws_eip.hashicat</text>
        </g>
        <!-- f459dca63bf8495dbd78da78c69a2403 -->
        <g id="node3" class="node">
            <title>f459dca63bf8495dbd78da78c69a2403</title>
            <image
                xlink:href="https://raw.githubusercontent.com/interrupt-software/diagrams-as-code/main/icons/sample_01.svg"
                width="101px" height="101px" preserveAspectRatio="xMinYMin meet" x="1085" y="-1280" />
            <text text-anchor="middle" x="1135.5" y="-1164" font-family="Sans-Serif" font-size="10.00"
                fill="#2d3436">aws_instance.hashicat</text>
        </g>
        <!-- e6665d08518b41a5a7bde92d453a882a&#45;&gt;f459dca63bf8495dbd78da78c69a2403 -->
        <g id="edge1" class="edge">
            <title>e6665d08518b41a5a7bde92d453a882a&#45;&gt;f459dca63bf8495dbd78da78c69a2403</title>
            <path fill="none" stroke="#7b8894" d="M1240.18,-1208C1240.18,-1208 1197.35,-1208 1197.35,-1208" />
            <polygon fill="#7b8894" stroke="#7b8894"
                points="1197.35,-1204.5 1187.35,-1208 1197.35,-1211.5 1197.35,-1204.5" />
        </g>
        <!-- 9080b0ba4eaf47febb43a19fc47691aa -->
        <g id="node2" class="node">
            <title>9080b0ba4eaf47febb43a19fc47691aa</title>
            <image
                xlink:href="https://raw.githubusercontent.com/interrupt-software/diagrams-as-code/main/icons/sample_01.svg"
                width="101px" height="101px" preserveAspectRatio="xMinYMin meet" x="620" y="-654" />
            <text text-anchor="middle" x="670.5" y="-538" font-family="Sans-Serif" font-size="10.00"
                fill="#2d3436">aws_eip_association.hashicat</text>
        </g>
        <!-- 9080b0ba4eaf47febb43a19fc47691aa&#45;&gt;e6665d08518b41a5a7bde92d453a882a -->
        <g id="edge2" class="edge">
            <title>9080b0ba4eaf47febb43a19fc47691aa&#45;&gt;e6665d08518b41a5a7bde92d453a882a</title>
            <path fill="none" stroke="#7b8894"
                d="M720.93,-642.67C868.65,-642.67 1290,-642.67 1290,-642.67 1290,-642.67 1290,-1106.66 1290,-1106.66" />
            <polygon fill="#7b8894" stroke="#7b8894"
                points="1286.5,-1106.66 1290,-1116.66 1293.5,-1106.66 1286.5,-1106.66" />
        </g>
        <!-- 092dbb4a90d34b8c845ae7b619e7185a -->
        <g id="node5" class="node">
            <title>092dbb4a90d34b8c845ae7b619e7185a</title>
            <image
                xlink:href="https://raw.githubusercontent.com/interrupt-software/diagrams-as-code/main/icons/sample_01.svg"
                width="101px" height="101px" preserveAspectRatio="xMinYMin meet" x="930" y="-1637" />
            <text text-anchor="middle" x="980.5" y="-1521" font-family="Sans-Serif" font-size="10.00"
                fill="#2d3436">aws_key_pair.hashicat</text>
        </g>
        <!-- f459dca63bf8495dbd78da78c69a2403&#45;&gt;092dbb4a90d34b8c845ae7b619e7185a -->
        <g id="edge3" class="edge">
            <title>f459dca63bf8495dbd78da78c69a2403&#45;&gt;092dbb4a90d34b8c845ae7b619e7185a</title>
            <path fill="none" stroke="#7b8894"
                d="M1152,-1297.71C1152,-1384.14 1152,-1522 1152,-1522 1152,-1522 1042.08,-1522 1042.08,-1522" />
            <polygon fill="#7b8894" stroke="#7b8894"
                points="1042.08,-1518.5 1032.08,-1522 1042.08,-1525.5 1042.08,-1518.5" />
        </g>
        <!-- ed03faa9151e4febb70be976c55ec50d -->
        <g id="node8" class="node">
            <title>ed03faa9151e4febb70be976c55ec50d</title>
            <image
                xlink:href="https://raw.githubusercontent.com/interrupt-software/diagrams-as-code/main/icons/sample_01.svg"
                width="101px" height="101px" preserveAspectRatio="xMinYMin meet" x="465" y="-1323" />
            <text text-anchor="middle" x="515.5" y="-1207" font-family="Sans-Serif" font-size="10.00"
                fill="#2d3436">aws_security_group.hashicat</text>
        </g>
        <!-- f459dca63bf8495dbd78da78c69a2403&#45;&gt;ed03faa9151e4febb70be976c55ec50d -->
        <g id="edge4" class="edge">
            <title>f459dca63bf8495dbd78da78c69a2403&#45;&gt;ed03faa9151e4febb70be976c55ec50d</title>
            <path fill="none" stroke="#7b8894" d="M1085.03,-1251C1085.03,-1251 577.21,-1251 577.21,-1251" />
            <polygon fill="#7b8894" stroke="#7b8894"
                points="577.21,-1247.5 567.21,-1251 577.21,-1254.5 577.21,-1247.5" />
        </g>
        <!-- e0ca444012ed40ecb9bdd63aa1d79218 -->
        <g id="node9" class="node">
            <title>e0ca444012ed40ecb9bdd63aa1d79218</title>
            <image
                xlink:href="https://raw.githubusercontent.com/interrupt-software/diagrams-as-code/main/icons/sample_01.svg"
                width="101px" height="101px" preserveAspectRatio="xMinYMin meet" x="465" y="-1123" />
            <text text-anchor="middle" x="515.5" y="-1007" font-family="Sans-Serif" font-size="10.00"
                fill="#2d3436">aws_subnet.hashicat</text>
        </g>
        <!-- f459dca63bf8495dbd78da78c69a2403&#45;&gt;e0ca444012ed40ecb9bdd63aa1d79218 -->
        <g id="edge5" class="edge">
            <title>f459dca63bf8495dbd78da78c69a2403&#45;&gt;e0ca444012ed40ecb9bdd63aa1d79218</title>
            <path fill="none" stroke="#7b8894"
                d="M1135,-1161.01C1135,-1143.99 1135,-1130.5 1135,-1130.5 1135,-1130.5 577.45,-1130.5 577.45,-1130.5" />
            <polygon fill="#7b8894" stroke="#7b8894" points="577.45,-1127 567.45,-1130.5 577.45,-1134 577.45,-1127" />
        </g>
        <!-- e0f1980241b14c5194981fbd1f5132bc -->
        <g id="node11" class="node">
            <title>e0f1980241b14c5194981fbd1f5132bc</title>
            <image
                xlink:href="https://raw.githubusercontent.com/interrupt-software/diagrams-as-code/main/icons/sample_01.svg"
                width="101px" height="101px" preserveAspectRatio="xMinYMin meet" x="930" y="-1102" />
            <text text-anchor="middle" x="980.5" y="-986" font-family="Sans-Serif" font-size="10.00"
                fill="#2d3436">data.aws_ami.ubuntu</text>
        </g>
        <!-- f459dca63bf8495dbd78da78c69a2403&#45;&gt;e0f1980241b14c5194981fbd1f5132bc -->
        <g id="edge6" class="edge">
            <title>f459dca63bf8495dbd78da78c69a2403&#45;&gt;e0f1980241b14c5194981fbd1f5132bc</title>
            <path fill="none" stroke="#7b8894"
                d="M1085.01,-1182.5C1039.61,-1182.5 980,-1182.5 980,-1182.5 980,-1182.5 980,-1131.2 980,-1131.2" />
            <polygon fill="#7b8894" stroke="#7b8894" points="983.5,-1131.2 980,-1121.2 976.5,-1131.2 983.5,-1131.2" />
        </g>
        <!-- d4fc583767af4fcf91003241169a9503 -->
        <g id="node27" class="node">
            <title>d4fc583767af4fcf91003241169a9503</title>
            <image
                xlink:href="https://raw.githubusercontent.com/interrupt-software/diagrams-as-code/main/icons/sample_03.svg"
                width="101px" height="101px" preserveAspectRatio="xMinYMin meet" x="930" y="-1457" />
            <text text-anchor="middle" x="980.5" y="-1341" font-family="Sans-Serif" font-size="10.00"
                fill="#2d3436">var.instance_type</text>
        </g>
        <!-- f459dca63bf8495dbd78da78c69a2403&#45;&gt;d4fc583767af4fcf91003241169a9503 -->
        <g id="edge7" class="edge">
            <title>f459dca63bf8495dbd78da78c69a2403&#45;&gt;d4fc583767af4fcf91003241169a9503</title>
            <path fill="none" stroke="#7b8894"
                d="M1118,-1297.9C1118,-1331.77 1118,-1365.5 1118,-1365.5 1118,-1365.5 1042.43,-1365.5 1042.43,-1365.5" />
            <polygon fill="#7b8894" stroke="#7b8894"
                points="1042.43,-1362 1032.43,-1365.5 1042.43,-1369 1042.43,-1362" />
        </g>
        <!-- 79e7131c263b40e69c163810fa812098 -->
        <g id="node4" class="node">
            <title>79e7131c263b40e69c163810fa812098</title>
            <image
                xlink:href="https://raw.githubusercontent.com/interrupt-software/diagrams-as-code/main/icons/sample_01.svg"
                width="101px" height="101px" preserveAspectRatio="xMinYMin meet" x="310" y="-922" />
            <text text-anchor="middle" x="360.5" y="-806" font-family="Sans-Serif" font-size="10.00"
                fill="#2d3436">aws_internet_gateway.hashicat</text>
        </g>
        <!-- 96ca3c72ddea4031a3d48f76f212ee4a -->
        <g id="node10" class="node">
            <title>96ca3c72ddea4031a3d48f76f212ee4a</title>
            <image
                xlink:href="https://raw.githubusercontent.com/interrupt-software/diagrams-as-code/main/icons/sample_01.svg"
                width="101px" height="101px" preserveAspectRatio="xMinYMin meet" x="155" y="-1236" />
            <text text-anchor="middle" x="205.5" y="-1120" font-family="Sans-Serif" font-size="10.00"
                fill="#2d3436">aws_vpc.hashicat</text>
        </g>
        <!-- 79e7131c263b40e69c163810fa812098&#45;&gt;96ca3c72ddea4031a3d48f76f212ee4a -->
        <g id="edge8" class="edge">
            <title>79e7131c263b40e69c163810fa812098&#45;&gt;96ca3c72ddea4031a3d48f76f212ee4a</title>
            <path fill="none" stroke="#7b8894"
                d="M310.01,-871.5C264.61,-871.5 205,-871.5 205,-871.5 205,-871.5 205,-1105.85 205,-1105.85" />
            <polygon fill="#7b8894" stroke="#7b8894"
                points="201.5,-1105.85 205,-1115.85 208.5,-1105.85 201.5,-1105.85" />
        </g>
        <!-- 4e91870dbec74f0ca6c7225e4e71aab3 -->
        <g id="node12" class="node">
            <title>4e91870dbec74f0ca6c7225e4e71aab3</title>
            <image
                xlink:href="https://raw.githubusercontent.com/interrupt-software/diagrams-as-code/main/icons/sample_01.svg"
                width="101px" height="101px" preserveAspectRatio="xMinYMin meet" x="155" y="-1458" />
            <text text-anchor="middle" x="205.5" y="-1342" font-family="Sans-Serif" font-size="10.00"
                fill="#2d3436">local.private_key_filename</text>
        </g>
        <!-- 092dbb4a90d34b8c845ae7b619e7185a&#45;&gt;4e91870dbec74f0ca6c7225e4e71aab3 -->
        <g id="edge11" class="edge">
            <title>092dbb4a90d34b8c845ae7b619e7185a&#45;&gt;4e91870dbec74f0ca6c7225e4e71aab3</title>
            <path fill="none" stroke="#7b8894"
                d="M963,-1518.16C963,-1511.04 963,-1506.33 963,-1506.33 963,-1506.33 205,-1506.33 205,-1506.33 205,-1506.33 205,-1487.39 205,-1487.39" />
            <polygon fill="#7b8894" stroke="#7b8894"
                points="208.5,-1487.39 205,-1477.39 201.5,-1487.39 208.5,-1487.39" />
        </g>
        <!-- 45fa5af517364216a1491c5ba0f63cea -->
        <g id="node16" class="node">
            <title>45fa5af517364216a1491c5ba0f63cea</title>
            <image
                xlink:href="https://raw.githubusercontent.com/interrupt-software/diagrams-as-code/main/icons/sample_02.svg"
                width="101px" height="101px" preserveAspectRatio="xMinYMin meet" x="775" y="-1102" />
            <text text-anchor="middle" x="825.5" y="-986" font-family="Sans-Serif" font-size="10.00"
                fill="#2d3436">provider[&quot;registry.terraform.io/hashicorp/aws&quot;]</text>
        </g>
        <!-- 092dbb4a90d34b8c845ae7b619e7185a&#45;&gt;45fa5af517364216a1491c5ba0f63cea -->
        <g id="edge9" class="edge">
            <title>092dbb4a90d34b8c845ae7b619e7185a&#45;&gt;45fa5af517364216a1491c5ba0f63cea</title>
            <path fill="none" stroke="#7b8894"
                d="M997,-1518.32C997,-1504.79 997,-1494.67 997,-1494.67 997,-1494.67 842,-1494.67 842,-1494.67 842,-1494.67 842,-1131.29 842,-1131.29" />
            <polygon fill="#7b8894" stroke="#7b8894"
                points="845.5,-1131.29 842,-1121.29 838.5,-1131.29 845.5,-1131.29" />
        </g>
        <!-- 64a560ec5f8a4893895eedeb5b212470 -->
        <g id="node23" class="node">
            <title>64a560ec5f8a4893895eedeb5b212470</title>
            <image
                xlink:href="https://raw.githubusercontent.com/interrupt-software/diagrams-as-code/main/icons/sample_01.svg"
                width="101px" height="101px" preserveAspectRatio="xMinYMin meet" x="775" y="-1637" />
            <text text-anchor="middle" x="825.5" y="-1521" font-family="Sans-Serif" font-size="10.00"
                fill="#2d3436">tls_private_key.hashicat</text>
        </g>
        <!-- 092dbb4a90d34b8c845ae7b619e7185a&#45;&gt;64a560ec5f8a4893895eedeb5b212470 -->
        <g id="edge10" class="edge">
            <title>092dbb4a90d34b8c845ae7b619e7185a&#45;&gt;64a560ec5f8a4893895eedeb5b212470</title>
            <path fill="none" stroke="#7b8894" d="M930.18,-1586.5C930.18,-1586.5 887.35,-1586.5 887.35,-1586.5" />
            <polygon fill="#7b8894" stroke="#7b8894" points="887.35,-1583 877.35,-1586.5 887.35,-1590 887.35,-1583" />
        </g>
        <!-- 908da80e8f1d4b55bc6bee53fb464bb3 -->
        <g id="node6" class="node">
            <title>908da80e8f1d4b55bc6bee53fb464bb3</title>
            <image
                xlink:href="https://raw.githubusercontent.com/interrupt-software/diagrams-as-code/main/icons/sample_01.svg"
                width="101px" height="101px" preserveAspectRatio="xMinYMin meet" x="465" y="-922" />
            <text text-anchor="middle" x="515.5" y="-806" font-family="Sans-Serif" font-size="10.00"
                fill="#2d3436">aws_route_table.hashicat</text>
        </g>
        <!-- 908da80e8f1d4b55bc6bee53fb464bb3&#45;&gt;79e7131c263b40e69c163810fa812098 -->
        <g id="edge12" class="edge">
            <title>908da80e8f1d4b55bc6bee53fb464bb3&#45;&gt;79e7131c263b40e69c163810fa812098</title>
            <path fill="none" stroke="#7b8894" d="M465.18,-871.5C465.18,-871.5 422.35,-871.5 422.35,-871.5" />
            <polygon fill="#7b8894" stroke="#7b8894" points="422.35,-868 412.35,-871.5 422.35,-875 422.35,-868" />
        </g>
        <!-- b698b07d1f6e49e295fe19a97d3e2c3e -->
        <g id="node7" class="node">
            <title>b698b07d1f6e49e295fe19a97d3e2c3e</title>
            <image
                xlink:href="https://raw.githubusercontent.com/interrupt-software/diagrams-as-code/main/icons/sample_01.svg"
                width="101px" height="101px" preserveAspectRatio="xMinYMin meet" x="620" y="-922" />
            <text text-anchor="middle" x="670.5" y="-806" font-family="Sans-Serif" font-size="10.00"
                fill="#2d3436">aws_route_table_association.hashicat</text>
        </g>
        <!-- b698b07d1f6e49e295fe19a97d3e2c3e&#45;&gt;908da80e8f1d4b55bc6bee53fb464bb3 -->
        <g id="edge13" class="edge">
            <title>b698b07d1f6e49e295fe19a97d3e2c3e&#45;&gt;908da80e8f1d4b55bc6bee53fb464bb3</title>
            <path fill="none" stroke="#7b8894" d="M620.18,-871.5C620.18,-871.5 577.35,-871.5 577.35,-871.5" />
            <polygon fill="#7b8894" stroke="#7b8894" points="577.35,-868 567.35,-871.5 577.35,-875 577.35,-868" />
        </g>
        <!-- b698b07d1f6e49e295fe19a97d3e2c3e&#45;&gt;e0ca444012ed40ecb9bdd63aa1d79218 -->
        <g id="edge14" class="edge">
            <title>b698b07d1f6e49e295fe19a97d3e2c3e&#45;&gt;e0ca444012ed40ecb9bdd63aa1d79218</title>
            <path fill="none" stroke="#7b8894"
                d="M670,-939.71C670,-952.27 670,-961.5 670,-961.5 670,-961.5 515,-961.5 515,-961.5 515,-961.5 515,-992.58 515,-992.58" />
            <polygon fill="#7b8894" stroke="#7b8894" points="511.5,-992.58 515,-1002.58 518.5,-992.58 511.5,-992.58" />
        </g>
        <!-- ed03faa9151e4febb70be976c55ec50d&#45;&gt;96ca3c72ddea4031a3d48f76f212ee4a -->
        <g id="edge15" class="edge">
            <title>ed03faa9151e4febb70be976c55ec50d&#45;&gt;96ca3c72ddea4031a3d48f76f212ee4a</title>
            <path fill="none" stroke="#7b8894" d="M465,-1229C465,-1229 267.49,-1229 267.49,-1229" />
            <polygon fill="#7b8894" stroke="#7b8894"
                points="267.49,-1225.5 257.49,-1229 267.49,-1232.5 267.49,-1225.5" />
        </g>
        <!-- e0ca444012ed40ecb9bdd63aa1d79218&#45;&gt;96ca3c72ddea4031a3d48f76f212ee4a -->
        <g id="edge16" class="edge">
            <title>e0ca444012ed40ecb9bdd63aa1d79218&#45;&gt;96ca3c72ddea4031a3d48f76f212ee4a</title>
            <path fill="none" stroke="#7b8894" d="M465,-1130.5C465,-1130.5 267.49,-1130.5 267.49,-1130.5" />
            <polygon fill="#7b8894" stroke="#7b8894" points="267.49,-1127 257.49,-1130.5 267.49,-1134 267.49,-1127" />
        </g>
        <!-- 2da85e8659134233af2d8fcaad8dda1c -->
        <g id="node31" class="node">
            <title>2da85e8659134233af2d8fcaad8dda1c</title>
            <image
                xlink:href="https://raw.githubusercontent.com/interrupt-software/diagrams-as-code/main/icons/sample_03.svg"
                width="101px" height="101px" preserveAspectRatio="xMinYMin meet" x="310" y="-1102" />
            <text text-anchor="middle" x="360.5" y="-986" font-family="Sans-Serif" font-size="10.00"
                fill="#2d3436">var.subnet_prefix</text>
        </g>
        <!-- e0ca444012ed40ecb9bdd63aa1d79218&#45;&gt;2da85e8659134233af2d8fcaad8dda1c -->
        <g id="edge17" class="edge">
            <title>e0ca444012ed40ecb9bdd63aa1d79218&#45;&gt;2da85e8659134233af2d8fcaad8dda1c</title>
            <path fill="none" stroke="#7b8894" d="M465.18,-1062C465.18,-1062 422.35,-1062 422.35,-1062" />
            <polygon fill="#7b8894" stroke="#7b8894"
                points="422.35,-1058.5 412.35,-1062 422.35,-1065.5 422.35,-1058.5" />
        </g>
        <!-- 96ca3c72ddea4031a3d48f76f212ee4a&#45;&gt;45fa5af517364216a1491c5ba0f63cea -->
        <g id="edge18" class="edge">
            <title>96ca3c72ddea4031a3d48f76f212ee4a&#45;&gt;45fa5af517364216a1491c5ba0f63cea</title>
            <path fill="none" stroke="#7b8894"
                d="M255.83,-1151C400.64,-1151 808,-1151 808,-1151 808,-1151 808,-1131.3 808,-1131.3" />
            <polygon fill="#7b8894" stroke="#7b8894" points="811.5,-1131.3 808,-1121.3 804.5,-1131.3 811.5,-1131.3" />
        </g>
        <!-- 2615aa2e21fb4c8e9c6cef8570deb6f0 -->
        <g id="node24" class="node">
            <title>2615aa2e21fb4c8e9c6cef8570deb6f0</title>
            <image
                xlink:href="https://raw.githubusercontent.com/interrupt-software/diagrams-as-code/main/icons/sample_03.svg"
                width="101px" height="101px" preserveAspectRatio="xMinYMin meet" x="0" y="-1236" />
            <text text-anchor="middle" x="50.5" y="-1120" font-family="Sans-Serif" font-size="10.00"
                fill="#2d3436">var.address_space</text>
        </g>
        <!-- 96ca3c72ddea4031a3d48f76f212ee4a&#45;&gt;2615aa2e21fb4c8e9c6cef8570deb6f0 -->
        <g id="edge19" class="edge">
            <title>96ca3c72ddea4031a3d48f76f212ee4a&#45;&gt;2615aa2e21fb4c8e9c6cef8570deb6f0</title>
            <path fill="none" stroke="#7b8894" d="M155.18,-1185.5C155.18,-1185.5 112.35,-1185.5 112.35,-1185.5" />
            <polygon fill="#7b8894" stroke="#7b8894" points="112.35,-1182 102.35,-1185.5 112.35,-1189 112.35,-1182" />
        </g>
        <!-- c1e54a0cd7fd40308b47e8ecf78a448f -->
        <g id="node29" class="node">
            <title>c1e54a0cd7fd40308b47e8ecf78a448f</title>
            <image
                xlink:href="https://raw.githubusercontent.com/interrupt-software/diagrams-as-code/main/icons/sample_03.svg"
                width="101px" height="101px" preserveAspectRatio="xMinYMin meet" x="0" y="-1436" />
            <text text-anchor="middle" x="50.5" y="-1320" font-family="Sans-Serif" font-size="10.00"
                fill="#2d3436">var.prefix</text>
        </g>
        <!-- 96ca3c72ddea4031a3d48f76f212ee4a&#45;&gt;c1e54a0cd7fd40308b47e8ecf78a448f -->
        <g id="edge20" class="edge">
            <title>96ca3c72ddea4031a3d48f76f212ee4a&#45;&gt;c1e54a0cd7fd40308b47e8ecf78a448f</title>
            <path fill="none" stroke="#7b8894"
                d="M205,-1253.83C205,-1290.4 205,-1328 205,-1328 205,-1328 112.18,-1328 112.18,-1328" />
            <polygon fill="#7b8894" stroke="#7b8894"
                points="112.18,-1324.5 102.18,-1328 112.18,-1331.5 112.18,-1324.5" />
        </g>
        <!-- e0f1980241b14c5194981fbd1f5132bc&#45;&gt;45fa5af517364216a1491c5ba0f63cea -->
        <g id="edge21" class="edge">
            <title>e0f1980241b14c5194981fbd1f5132bc&#45;&gt;45fa5af517364216a1491c5ba0f63cea</title>
            <path fill="none" stroke="#7b8894" d="M930.18,-1051.5C930.18,-1051.5 887.35,-1051.5 887.35,-1051.5" />
            <polygon fill="#7b8894" stroke="#7b8894" points="887.35,-1048 877.35,-1051.5 887.35,-1055 887.35,-1048" />
        </g>
        <!-- 4e91870dbec74f0ca6c7225e4e71aab3&#45;&gt;c1e54a0cd7fd40308b47e8ecf78a448f -->
        <g id="edge29" class="edge">
            <title>4e91870dbec74f0ca6c7225e4e71aab3&#45;&gt;c1e54a0cd7fd40308b47e8ecf78a448f</title>
            <path fill="none" stroke="#7b8894" d="M155.18,-1396.5C155.18,-1396.5 112.35,-1396.5 112.35,-1396.5" />
            <polygon fill="#7b8894" stroke="#7b8894" points="112.35,-1393 102.35,-1396.5 112.35,-1400 112.35,-1393" />
        </g>
        <!-- 813abe7dbc8b4795a84cf78ca8a927f5 -->
        <g id="node13" class="node">
            <title>813abe7dbc8b4795a84cf78ca8a927f5</title>
            <image
                xlink:href="https://raw.githubusercontent.com/interrupt-software/diagrams-as-code/main/icons/sample_01.svg"
                width="101px" height="101px" preserveAspectRatio="xMinYMin meet" x="1550" y="-477" />
            <text text-anchor="middle" x="1600.5" y="-361" font-family="Sans-Serif" font-size="10.00"
                fill="#2d3436">null_resource.configure&#45;cat&#45;app</text>
        </g>
        <!-- 813abe7dbc8b4795a84cf78ca8a927f5&#45;&gt;9080b0ba4eaf47febb43a19fc47691aa -->
        <g id="edge22" class="edge">
            <title>813abe7dbc8b4795a84cf78ca8a927f5&#45;&gt;9080b0ba4eaf47febb43a19fc47691aa</title>
            <path fill="none" stroke="#7b8894"
                d="M1550.14,-426.5C1356.42,-426.5 670,-426.5 670,-426.5 670,-426.5 670,-523.55 670,-523.55" />
            <polygon fill="#7b8894" stroke="#7b8894" points="666.5,-523.55 670,-533.55 673.5,-523.55 666.5,-523.55" />
        </g>
        <!-- 4552961c53e440029e97e3d4b9d629a0 -->
        <g id="node18" class="node">
            <title>4552961c53e440029e97e3d4b9d629a0</title>
            <image
                xlink:href="https://raw.githubusercontent.com/interrupt-software/diagrams-as-code/main/icons/sample_02.svg"
                width="101px" height="101px" preserveAspectRatio="xMinYMin meet" x="1395" y="-747" />
            <text text-anchor="middle" x="1445.5" y="-631" font-family="Sans-Serif" font-size="10.00"
                fill="#2d3436">provider[&quot;registry.terraform.io/hashicorp/null&quot;]</text>
        </g>
        <!-- 813abe7dbc8b4795a84cf78ca8a927f5&#45;&gt;4552961c53e440029e97e3d4b9d629a0 -->
        <g id="edge23" class="edge">
            <title>813abe7dbc8b4795a84cf78ca8a927f5&#45;&gt;4552961c53e440029e97e3d4b9d629a0</title>
            <path fill="none" stroke="#7b8894"
                d="M1570,-494.69C1570,-564.31 1570,-662.25 1570,-662.25 1570,-662.25 1507.29,-662.25 1507.29,-662.25" />
            <polygon fill="#7b8894" stroke="#7b8894"
                points="1507.29,-658.75 1497.29,-662.25 1507.29,-665.75 1507.29,-658.75" />
        </g>
        <!-- 4232605f54c44a0dabda45ec020ffd14 -->
        <g id="node26" class="node">
            <title>4232605f54c44a0dabda45ec020ffd14</title>
            <image
                xlink:href="https://raw.githubusercontent.com/interrupt-software/diagrams-as-code/main/icons/sample_03.svg"
                width="101px" height="101px" preserveAspectRatio="xMinYMin meet" x="1395" y="-119" />
            <text text-anchor="middle" x="1445.5" y="-3" font-family="Sans-Serif" font-size="10.00"
                fill="#2d3436">var.height</text>
        </g>
        <!-- 813abe7dbc8b4795a84cf78ca8a927f5&#45;&gt;4232605f54c44a0dabda45ec020ffd14 -->
        <g id="edge24" class="edge">
            <title>813abe7dbc8b4795a84cf78ca8a927f5&#45;&gt;4232605f54c44a0dabda45ec020ffd14</title>
            <path fill="none" stroke="#7b8894"
                d="M1600,-358.32C1600,-254.45 1600,-68.5 1600,-68.5 1600,-68.5 1507.18,-68.5 1507.18,-68.5" />
            <polygon fill="#7b8894" stroke="#7b8894" points="1507.18,-65 1497.18,-68.5 1507.18,-72 1507.18,-65" />
        </g>
        <!-- 103be76fdb2b491c92822718d415bab6 -->
        <g id="node28" class="node">
            <title>103be76fdb2b491c92822718d415bab6</title>
            <image
                xlink:href="https://raw.githubusercontent.com/interrupt-software/diagrams-as-code/main/icons/sample_03.svg"
                width="101px" height="101px" preserveAspectRatio="xMinYMin meet" x="1395" y="-567" />
            <text text-anchor="middle" x="1445.5" y="-451" font-family="Sans-Serif" font-size="10.00"
                fill="#2d3436">var.placeholder</text>
        </g>
        <!-- 813abe7dbc8b4795a84cf78ca8a927f5&#45;&gt;103be76fdb2b491c92822718d415bab6 -->
        <g id="edge25" class="edge">
            <title>813abe7dbc8b4795a84cf78ca8a927f5&#45;&gt;103be76fdb2b491c92822718d415bab6</title>
            <path fill="none" stroke="#7b8894" d="M1550.18,-471.5C1550.18,-471.5 1507.35,-471.5 1507.35,-471.5" />
            <polygon fill="#7b8894" stroke="#7b8894" points="1507.35,-468 1497.35,-471.5 1507.35,-475 1507.35,-468" />
        </g>
        <!-- 173632482b3945e4a2f7cc53a4ce48da -->
        <g id="node32" class="node">
            <title>173632482b3945e4a2f7cc53a4ce48da</title>
            <image
                xlink:href="https://raw.githubusercontent.com/interrupt-software/diagrams-as-code/main/icons/sample_03.svg"
                width="101px" height="101px" preserveAspectRatio="xMinYMin meet" x="1395" y="-387" />
            <text text-anchor="middle" x="1445.5" y="-271" font-family="Sans-Serif" font-size="10.00"
                fill="#2d3436">var.width</text>
        </g>
        <!-- 813abe7dbc8b4795a84cf78ca8a927f5&#45;&gt;173632482b3945e4a2f7cc53a4ce48da -->
        <g id="edge26" class="edge">
            <title>813abe7dbc8b4795a84cf78ca8a927f5&#45;&gt;173632482b3945e4a2f7cc53a4ce48da</title>
            <path fill="none" stroke="#7b8894" d="M1550.18,-381.5C1550.18,-381.5 1507.35,-381.5 1507.35,-381.5" />
            <polygon fill="#7b8894" stroke="#7b8894" points="1507.35,-378 1497.35,-381.5 1507.35,-385 1507.35,-378" />
        </g>
        <!-- ce3c9528215e4b68a9d705897e6b4ee2 -->
        <g id="node14" class="node">
            <title>ce3c9528215e4b68a9d705897e6b4ee2</title>
            <image
                xlink:href="https://raw.githubusercontent.com/interrupt-software/diagrams-as-code/main/icons/sample_01.svg"
                width="101px" height="101px" preserveAspectRatio="xMinYMin meet" x="1395" y="-1375" />
            <text text-anchor="middle" x="1445.5" y="-1259" font-family="Sans-Serif" font-size="10.00"
                fill="#2d3436">output.catapp_ip</text>
        </g>
        <!-- ce3c9528215e4b68a9d705897e6b4ee2&#45;&gt;e6665d08518b41a5a7bde92d453a882a -->
        <g id="edge30" class="edge">
            <title>ce3c9528215e4b68a9d705897e6b4ee2&#45;&gt;e6665d08518b41a5a7bde92d453a882a</title>
            <path fill="none" stroke="#7b8894"
                d="M1395.01,-1277C1349.61,-1277 1290,-1277 1290,-1277 1290,-1277 1290,-1266.14 1290,-1266.14" />
            <polygon fill="#7b8894" stroke="#7b8894"
                points="1293.5,-1266.14 1290,-1256.14 1286.5,-1266.14 1293.5,-1266.14" />
        </g>
        <!-- 7746387681ae456d98b635e66deeeb5a -->
        <g id="node15" class="node">
            <title>7746387681ae456d98b635e66deeeb5a</title>
            <image
                xlink:href="https://raw.githubusercontent.com/interrupt-software/diagrams-as-code/main/icons/sample_01.svg"
                width="101px" height="101px" preserveAspectRatio="xMinYMin meet" x="1395" y="-1195" />
            <text text-anchor="middle" x="1445.5" y="-1079" font-family="Sans-Serif" font-size="10.00"
                fill="#2d3436">output.catapp_url</text>
        </g>
        <!-- 7746387681ae456d98b635e66deeeb5a&#45;&gt;e6665d08518b41a5a7bde92d453a882a -->
        <g id="edge31" class="edge">
            <title>7746387681ae456d98b635e66deeeb5a&#45;&gt;e6665d08518b41a5a7bde92d453a882a</title>
            <path fill="none" stroke="#7b8894" d="M1395.18,-1165.5C1395.18,-1165.5 1352.35,-1165.5 1352.35,-1165.5" />
            <polygon fill="#7b8894" stroke="#7b8894"
                points="1352.35,-1162 1342.35,-1165.5 1352.35,-1169 1352.35,-1162" />
        </g>
        <!-- 45fa5af517364216a1491c5ba0f63cea&#45;&gt;9080b0ba4eaf47febb43a19fc47691aa -->
        <g id="edge32" class="edge">
            <title>45fa5af517364216a1491c5ba0f63cea&#45;&gt;9080b0ba4eaf47febb43a19fc47691aa</title>
            <path fill="none" stroke="#7b8894"
                d="M825,-983.29C825,-870.48 825,-657.33 825,-657.33 825,-657.33 732.18,-657.33 732.18,-657.33" />
            <polygon fill="#7b8894" stroke="#7b8894"
                points="732.18,-653.83 722.18,-657.33 732.18,-660.83 732.18,-653.83" />
        </g>
        <!-- 45fa5af517364216a1491c5ba0f63cea&#45;&gt;b698b07d1f6e49e295fe19a97d3e2c3e -->
        <g id="edge33" class="edge">
            <title>45fa5af517364216a1491c5ba0f63cea&#45;&gt;b698b07d1f6e49e295fe19a97d3e2c3e</title>
            <path fill="none" stroke="#7b8894"
                d="M800,-983.19C800,-950.34 800,-918 800,-918 800,-918 732.45,-918 732.45,-918" />
            <polygon fill="#7b8894" stroke="#7b8894" points="732.45,-914.5 722.45,-918 732.45,-921.5 732.45,-914.5" />
        </g>
        <!-- 2c77cff829954947a64a0fd12a6e92ce -->
        <g id="node30" class="node">
            <title>2c77cff829954947a64a0fd12a6e92ce</title>
            <image
                xlink:href="https://raw.githubusercontent.com/interrupt-software/diagrams-as-code/main/icons/sample_03.svg"
                width="101px" height="101px" preserveAspectRatio="xMinYMin meet" x="620" y="-1102" />
            <text text-anchor="middle" x="670.5" y="-986" font-family="Sans-Serif" font-size="10.00"
                fill="#2d3436">var.region</text>
        </g>
        <!-- 45fa5af517364216a1491c5ba0f63cea&#45;&gt;2c77cff829954947a64a0fd12a6e92ce -->
        <g id="edge27" class="edge">
            <title>45fa5af517364216a1491c5ba0f63cea&#45;&gt;2c77cff829954947a64a0fd12a6e92ce</title>
            <path fill="none" stroke="#7b8894" d="M775.18,-1051.5C775.18,-1051.5 732.35,-1051.5 732.35,-1051.5" />
            <polygon fill="#7b8894" stroke="#7b8894" points="732.35,-1048 722.35,-1051.5 732.35,-1055 732.35,-1048" />
        </g>
        <!-- da3123fb83fa4556af8e15ba7b09d2ea -->
        <g id="node17" class="node">
            <title>da3123fb83fa4556af8e15ba7b09d2ea</title>
            <image
                xlink:href="https://raw.githubusercontent.com/interrupt-software/diagrams-as-code/main/icons/sample_01.svg"
                width="101px" height="101px" preserveAspectRatio="xMinYMin meet" x="1550" y="-1285" />
            <text text-anchor="middle" x="1600.5" y="-1169" font-family="Sans-Serif" font-size="10.00"
                fill="#2d3436">provider[&quot;registry.terraform.io/hashicorp/aws&quot;]</text>
        </g>
        <!-- 4552961c53e440029e97e3d4b9d629a0&#45;&gt;813abe7dbc8b4795a84cf78ca8a927f5 -->
        <g id="edge34" class="edge">
            <title>4552961c53e440029e97e3d4b9d629a0&#45;&gt;813abe7dbc8b4795a84cf78ca8a927f5</title>
            <path fill="none" stroke="#7b8894"
                d="M1495.63,-696.5C1537.37,-696.5 1590,-696.5 1590,-696.5 1590,-696.5 1590,-506.49 1590,-506.49" />
            <polygon fill="#7b8894" stroke="#7b8894"
                points="1593.5,-506.49 1590,-496.49 1586.5,-506.5 1593.5,-506.49" />
        </g>
        <!-- 165c3f8999f34b1291237146dfe0cbaf -->
        <g id="node19" class="node">
            <title>165c3f8999f34b1291237146dfe0cbaf</title>
            <image
                xlink:href="https://raw.githubusercontent.com/interrupt-software/diagrams-as-code/main/icons/sample_01.svg"
                width="101px" height="101px" preserveAspectRatio="xMinYMin meet" x="1550" y="-1465" />
            <text text-anchor="middle" x="1600.5" y="-1349" font-family="Sans-Serif" font-size="10.00"
                fill="#2d3436">provider[&quot;registry.terraform.io/hashicorp/null&quot;]</text>
        </g>
        <!-- 91a58756a9d947698bc7b0eea7ef9d7f -->
        <g id="node20" class="node">
            <title>91a58756a9d947698bc7b0eea7ef9d7f</title>
            <image
                xlink:href="https://raw.githubusercontent.com/interrupt-software/diagrams-as-code/main/icons/sample_02.svg"
                width="101px" height="101px" preserveAspectRatio="xMinYMin meet" x="620" y="-1637" />
            <text text-anchor="middle" x="670.5" y="-1521" font-family="Sans-Serif" font-size="10.00"
                fill="#2d3436">provider[&quot;registry.terraform.io/hashicorp/tls&quot;]</text>
        </g>
        <!-- 91a58756a9d947698bc7b0eea7ef9d7f&#45;&gt;64a560ec5f8a4893895eedeb5b212470 -->
        <g id="edge35" class="edge">
            <title>91a58756a9d947698bc7b0eea7ef9d7f&#45;&gt;64a560ec5f8a4893895eedeb5b212470</title>
            <path fill="none" stroke="#7b8894" d="M720.82,-1609.33C720.82,-1609.33 763.65,-1609.33 763.65,-1609.33" />
            <polygon fill="#7b8894" stroke="#7b8894"
                points="763.65,-1612.83 773.65,-1609.33 763.65,-1605.83 763.65,-1612.83" />
        </g>
        <!-- 364296bfd948492b846510c0245e0494 -->
        <g id="node21" class="node">
            <title>364296bfd948492b846510c0245e0494</title>
            <image
                xlink:href="https://raw.githubusercontent.com/interrupt-software/diagrams-as-code/main/icons/sample_01.svg"
                width="101px" height="101px" preserveAspectRatio="xMinYMin meet" x="1550" y="-1645" />
            <text text-anchor="middle" x="1600.5" y="-1529" font-family="Sans-Serif" font-size="10.00"
                fill="#2d3436">provider[&quot;registry.terraform.io/hashicorp/tls&quot;]</text>
        </g>
        <!-- 25164d085b084bd988f15b867a43b2c9 -->
        <g id="node22" class="node">
            <title>25164d085b084bd988f15b867a43b2c9</title>
            <image
                xlink:href="https://raw.githubusercontent.com/interrupt-software/diagrams-as-code/main/icons/sample_01.svg"
                width="101px" height="101px" preserveAspectRatio="xMinYMin meet" x="1550" y="-1105" />
            <text text-anchor="middle" x="1600.5" y="-989" font-family="Sans-Serif" font-size="10.00"
                fill="#2d3436">root</text>
        </g>
        <!-- 25164d085b084bd988f15b867a43b2c9&#45;&gt;ce3c9528215e4b68a9d705897e6b4ee2 -->
        <g id="edge37" class="edge">
            <title>25164d085b084bd988f15b867a43b2c9&#45;&gt;ce3c9528215e4b68a9d705897e6b4ee2</title>
            <path fill="none" stroke="#7b8894"
                d="M1550.18,-1099.5C1531.15,-1099.5 1514,-1099.5 1514,-1099.5 1514,-1099.5 1514,-1279.5 1514,-1279.5 1514,-1279.5 1507.16,-1279.5 1507.16,-1279.5" />
            <polygon fill="#7b8894" stroke="#7b8894"
                points="1507.16,-1276 1497.16,-1279.5 1507.16,-1283 1507.16,-1276" />
        </g>
        <!-- 25164d085b084bd988f15b867a43b2c9&#45;&gt;7746387681ae456d98b635e66deeeb5a -->
        <g id="edge38" class="edge">
            <title>25164d085b084bd988f15b867a43b2c9&#45;&gt;7746387681ae456d98b635e66deeeb5a</title>
            <path fill="none" stroke="#7b8894"
                d="M1550.18,-1087.75C1550.18,-1087.75 1507.35,-1087.75 1507.35,-1087.75" />
            <polygon fill="#7b8894" stroke="#7b8894"
                points="1507.35,-1084.25 1497.35,-1087.75 1507.35,-1091.25 1507.35,-1084.25" />
        </g>
        <!-- 25164d085b084bd988f15b867a43b2c9&#45;&gt;45fa5af517364216a1491c5ba0f63cea -->
        <g id="edge39" class="edge">
            <title>25164d085b084bd988f15b867a43b2c9&#45;&gt;45fa5af517364216a1491c5ba0f63cea</title>
            <path fill="none" stroke="#7b8894"
                d="M1610,-986.24C1610,-926.6 1610,-849.5 1610,-849.5 1610,-849.5 850,-849.5 850,-849.5 850,-849.5 850,-971.6 850,-971.6" />
            <polygon fill="#7b8894" stroke="#7b8894" points="846.5,-971.6 850,-981.6 853.5,-971.6 846.5,-971.6" />
        </g>
        <!-- 25164d085b084bd988f15b867a43b2c9&#45;&gt;4552961c53e440029e97e3d4b9d629a0 -->
        <g id="edge40" class="edge">
            <title>25164d085b084bd988f15b867a43b2c9&#45;&gt;4552961c53e440029e97e3d4b9d629a0</title>
            <path fill="none" stroke="#7b8894"
                d="M1630,-986.24C1630,-891.25 1630,-730.75 1630,-730.75 1630,-730.75 1507.43,-730.75 1507.43,-730.75" />
            <polygon fill="#7b8894" stroke="#7b8894"
                points="1507.43,-727.25 1497.43,-730.75 1507.43,-734.25 1507.43,-727.25" />
        </g>
        <!-- 25164d085b084bd988f15b867a43b2c9&#45;&gt;91a58756a9d947698bc7b0eea7ef9d7f -->
        <g id="edge41" class="edge">
            <title>25164d085b084bd988f15b867a43b2c9&#45;&gt;91a58756a9d947698bc7b0eea7ef9d7f</title>
            <path fill="none" stroke="#7b8894"
                d="M1550.36,-1111.25C1539.91,-1111.25 1532,-1111.25 1532,-1111.25 1532,-1111.25 1532,-1479.5 1532,-1479.5 1532,-1479.5 670,-1479.5 670,-1479.5 670,-1479.5 670,-1506.62 670,-1506.62" />
            <polygon fill="#7b8894" stroke="#7b8894"
                points="666.5,-1506.62 670,-1516.62 673.5,-1506.62 666.5,-1506.62" />
        </g>
        <!-- e52370d0677f42a39c741eb3073478e2 -->
        <g id="node25" class="node">
            <title>e52370d0677f42a39c741eb3073478e2</title>
            <image
                xlink:href="https://raw.githubusercontent.com/interrupt-software/diagrams-as-code/main/icons/sample_03.svg"
                width="101px" height="101px" preserveAspectRatio="xMinYMin meet" x="1395" y="-1015" />
            <text text-anchor="middle" x="1445.5" y="-899" font-family="Sans-Serif" font-size="10.00"
                fill="#2d3436">var.admin_username</text>
        </g>
        <!-- 25164d085b084bd988f15b867a43b2c9&#45;&gt;e52370d0677f42a39c741eb3073478e2 -->
        <g id="edge36" class="edge">
            <title>25164d085b084bd988f15b867a43b2c9&#45;&gt;e52370d0677f42a39c741eb3073478e2</title>
            <path fill="none" stroke="#7b8894" d="M1550.18,-1009.5C1550.18,-1009.5 1507.35,-1009.5 1507.35,-1009.5" />
            <polygon fill="#7b8894" stroke="#7b8894"
                points="1507.35,-1006 1497.35,-1009.5 1507.35,-1013 1507.35,-1006" />
        </g>
        <!-- 64a560ec5f8a4893895eedeb5b212470&#45;&gt;91a58756a9d947698bc7b0eea7ef9d7f -->
        <g id="edge28" class="edge">
            <title>64a560ec5f8a4893895eedeb5b212470&#45;&gt;91a58756a9d947698bc7b0eea7ef9d7f</title>
            <path fill="none" stroke="#7b8894" d="M775.18,-1563.67C775.18,-1563.67 732.35,-1563.67 732.35,-1563.67" />
            <polygon fill="#7b8894" stroke="#7b8894"
                points="732.35,-1560.17 722.35,-1563.67 732.35,-1567.17 732.35,-1560.17" />
        </g>
    </g>
</svg>