<?xml version="1.0" encoding="UTF-8" standalone="no"?>
<!DOCTYPE svg PUBLIC "-//W3C//DTD SVG 1.1//EN"
 "http://www.w3.org/Graphics/SVG/1.1/DTD/svg11.dtd">
<!-- Generated by graphviz version 7.1.0 (20230121.1956)
 -->
<!-- Title: HashiCat Deployment Pages: 1 -->
<svg width="1125pt" height="1152pt"
 viewBox="0.00 0.00 1125.30 1152.00" xmlns="http://www.w3.org/2000/svg" xmlns:xlink="http://www.w3.org/1999/xlink">
<g id="graph0" class="graph" transform="scale(0.580353 0.580353) rotate(0) translate(144 1841)">
<title>HashiCat Deployment</title>
<text text-anchor="middle" x="825.5" y="-1673.8" font-family="Sans-Serif" font-size="24.00" fill="#2d3436">HashiCat Deployment</text>
<!-- d1cf0b3df4b9410b94850e9860718313 -->
<g id="node1" class="node">
<title>d1cf0b3df4b9410b94850e9860718313</title>
<image xlink:href="./icons/sample_01.svg" width="101px" height="101px" preserveAspectRatio="xMinYMin meet" x="1240" y="-1237"/>
<text text-anchor="middle" x="1290.5" y="-1121" font-family="Sans-Serif" font-size="10.00" fill="#2d3436">aws_eip.hashicat</text>
</g>
<!-- a11630a8bf714eaa9bb905c4adf2b6da -->
<g id="node3" class="node">
<title>a11630a8bf714eaa9bb905c4adf2b6da</title>
<image xlink:href="./icons/sample_01.svg" width="101px" height="101px" preserveAspectRatio="xMinYMin meet" x="1085" y="-1280"/>
<text text-anchor="middle" x="1135.5" y="-1164" font-family="Sans-Serif" font-size="10.00" fill="#2d3436">aws_instance.hashicat</text>
</g>
<!-- d1cf0b3df4b9410b94850e9860718313&#45;&gt;a11630a8bf714eaa9bb905c4adf2b6da -->
<g id="edge1" class="edge">
<title>d1cf0b3df4b9410b94850e9860718313&#45;&gt;a11630a8bf714eaa9bb905c4adf2b6da</title>
<path fill="none" stroke="#7b8894" d="M1240.18,-1208C1240.18,-1208 1197.35,-1208 1197.35,-1208"/>
<polygon fill="#7b8894" stroke="#7b8894" points="1197.35,-1204.5 1187.35,-1208 1197.35,-1211.5 1197.35,-1204.5"/>
</g>
<!-- df399093758b4e1e87e8a93383221b2b -->
<g id="node2" class="node">
<title>df399093758b4e1e87e8a93383221b2b</title>
<image xlink:href="./icons/sample_01.svg" width="101px" height="101px" preserveAspectRatio="xMinYMin meet" x="620" y="-654"/>
<text text-anchor="middle" x="670.5" y="-538" font-family="Sans-Serif" font-size="10.00" fill="#2d3436">aws_eip_association.hashicat</text>
</g>
<!-- df399093758b4e1e87e8a93383221b2b&#45;&gt;d1cf0b3df4b9410b94850e9860718313 -->
<g id="edge2" class="edge">
<title>df399093758b4e1e87e8a93383221b2b&#45;&gt;d1cf0b3df4b9410b94850e9860718313</title>
<path fill="none" stroke="#7b8894" d="M720.93,-642.67C868.65,-642.67 1290,-642.67 1290,-642.67 1290,-642.67 1290,-1106.66 1290,-1106.66"/>
<polygon fill="#7b8894" stroke="#7b8894" points="1286.5,-1106.66 1290,-1116.66 1293.5,-1106.66 1286.5,-1106.66"/>
</g>
<!-- e6113e7d68cc43de9ed68f19ecc8f1d5 -->
<g id="node5" class="node">
<title>e6113e7d68cc43de9ed68f19ecc8f1d5</title>
<image xlink:href="./icons/sample_01.svg" width="101px" height="101px" preserveAspectRatio="xMinYMin meet" x="930" y="-1637"/>
<text text-anchor="middle" x="980.5" y="-1521" font-family="Sans-Serif" font-size="10.00" fill="#2d3436">aws_key_pair.hashicat</text>
</g>
<!-- a11630a8bf714eaa9bb905c4adf2b6da&#45;&gt;e6113e7d68cc43de9ed68f19ecc8f1d5 -->
<g id="edge3" class="edge">
<title>a11630a8bf714eaa9bb905c4adf2b6da&#45;&gt;e6113e7d68cc43de9ed68f19ecc8f1d5</title>
<path fill="none" stroke="#7b8894" d="M1152,-1297.71C1152,-1384.14 1152,-1522 1152,-1522 1152,-1522 1042.08,-1522 1042.08,-1522"/>
<polygon fill="#7b8894" stroke="#7b8894" points="1042.08,-1518.5 1032.08,-1522 1042.08,-1525.5 1042.08,-1518.5"/>
</g>
<!-- e835569736fa45d98c6640ab2bdc0ba5 -->
<g id="node8" class="node">
<title>e835569736fa45d98c6640ab2bdc0ba5</title>
<image xlink:href="./icons/sample_01.svg" width="101px" height="101px" preserveAspectRatio="xMinYMin meet" x="465" y="-1323"/>
<text text-anchor="middle" x="515.5" y="-1207" font-family="Sans-Serif" font-size="10.00" fill="#2d3436">aws_security_group.hashicat</text>
</g>
<!-- a11630a8bf714eaa9bb905c4adf2b6da&#45;&gt;e835569736fa45d98c6640ab2bdc0ba5 -->
<g id="edge4" class="edge">
<title>a11630a8bf714eaa9bb905c4adf2b6da&#45;&gt;e835569736fa45d98c6640ab2bdc0ba5</title>
<path fill="none" stroke="#7b8894" d="M1085.03,-1251C1085.03,-1251 577.21,-1251 577.21,-1251"/>
<polygon fill="#7b8894" stroke="#7b8894" points="577.21,-1247.5 567.21,-1251 577.21,-1254.5 577.21,-1247.5"/>
</g>
<!-- 8d96fdc4e2144235bc69dda3633f24e0 -->
<g id="node9" class="node">
<title>8d96fdc4e2144235bc69dda3633f24e0</title>
<image xlink:href="./icons/sample_01.svg" width="101px" height="101px" preserveAspectRatio="xMinYMin meet" x="465" y="-1123"/>
<text text-anchor="middle" x="515.5" y="-1007" font-family="Sans-Serif" font-size="10.00" fill="#2d3436">aws_subnet.hashicat</text>
</g>
<!-- a11630a8bf714eaa9bb905c4adf2b6da&#45;&gt;8d96fdc4e2144235bc69dda3633f24e0 -->
<g id="edge5" class="edge">
<title>a11630a8bf714eaa9bb905c4adf2b6da&#45;&gt;8d96fdc4e2144235bc69dda3633f24e0</title>
<path fill="none" stroke="#7b8894" d="M1135,-1161.01C1135,-1143.99 1135,-1130.5 1135,-1130.5 1135,-1130.5 577.45,-1130.5 577.45,-1130.5"/>
<polygon fill="#7b8894" stroke="#7b8894" points="577.45,-1127 567.45,-1130.5 577.45,-1134 577.45,-1127"/>
</g>
<!-- 858e044f9ba747ad80c06419949bda4b -->
<g id="node11" class="node">
<title>858e044f9ba747ad80c06419949bda4b</title>
<image xlink:href="./icons/sample_01.svg" width="101px" height="101px" preserveAspectRatio="xMinYMin meet" x="930" y="-1102"/>
<text text-anchor="middle" x="980.5" y="-986" font-family="Sans-Serif" font-size="10.00" fill="#2d3436">data.aws_ami.ubuntu</text>
</g>
<!-- a11630a8bf714eaa9bb905c4adf2b6da&#45;&gt;858e044f9ba747ad80c06419949bda4b -->
<g id="edge6" class="edge">
<title>a11630a8bf714eaa9bb905c4adf2b6da&#45;&gt;858e044f9ba747ad80c06419949bda4b</title>
<path fill="none" stroke="#7b8894" d="M1085.01,-1182.5C1039.61,-1182.5 980,-1182.5 980,-1182.5 980,-1182.5 980,-1131.2 980,-1131.2"/>
<polygon fill="#7b8894" stroke="#7b8894" points="983.5,-1131.2 980,-1121.2 976.5,-1131.2 983.5,-1131.2"/>
</g>
<!-- b3b165da880f45cbb3e0772fe3384f80 -->
<g id="node27" class="node">
<title>b3b165da880f45cbb3e0772fe3384f80</title>
<image xlink:href="./icons/sample_03.svg" width="101px" height="101px" preserveAspectRatio="xMinYMin meet" x="930" y="-1457"/>
<text text-anchor="middle" x="980.5" y="-1341" font-family="Sans-Serif" font-size="10.00" fill="#2d3436">var.instance_type</text>
</g>
<!-- a11630a8bf714eaa9bb905c4adf2b6da&#45;&gt;b3b165da880f45cbb3e0772fe3384f80 -->
<g id="edge7" class="edge">
<title>a11630a8bf714eaa9bb905c4adf2b6da&#45;&gt;b3b165da880f45cbb3e0772fe3384f80</title>
<path fill="none" stroke="#7b8894" d="M1118,-1297.9C1118,-1331.77 1118,-1365.5 1118,-1365.5 1118,-1365.5 1042.43,-1365.5 1042.43,-1365.5"/>
<polygon fill="#7b8894" stroke="#7b8894" points="1042.43,-1362 1032.43,-1365.5 1042.43,-1369 1042.43,-1362"/>
</g>
<!-- 8e3e5d0b6c7243659417e095ffa544e8 -->
<g id="node4" class="node">
<title>8e3e5d0b6c7243659417e095ffa544e8</title>
<image xlink:href="./icons/sample_01.svg" width="101px" height="101px" preserveAspectRatio="xMinYMin meet" x="310" y="-922"/>
<text text-anchor="middle" x="360.5" y="-806" font-family="Sans-Serif" font-size="10.00" fill="#2d3436">aws_internet_gateway.hashicat</text>
</g>
<!-- 1be4d1fa031a4d32800e97487075e416 -->
<g id="node10" class="node">
<title>1be4d1fa031a4d32800e97487075e416</title>
<image xlink:href="./icons/sample_01.svg" width="101px" height="101px" preserveAspectRatio="xMinYMin meet" x="155" y="-1236"/>
<text text-anchor="middle" x="205.5" y="-1120" font-family="Sans-Serif" font-size="10.00" fill="#2d3436">aws_vpc.hashicat</text>
</g>
<!-- 8e3e5d0b6c7243659417e095ffa544e8&#45;&gt;1be4d1fa031a4d32800e97487075e416 -->
<g id="edge8" class="edge">
<title>8e3e5d0b6c7243659417e095ffa544e8&#45;&gt;1be4d1fa031a4d32800e97487075e416</title>
<path fill="none" stroke="#7b8894" d="M310.01,-871.5C264.61,-871.5 205,-871.5 205,-871.5 205,-871.5 205,-1105.85 205,-1105.85"/>
<polygon fill="#7b8894" stroke="#7b8894" points="201.5,-1105.85 205,-1115.85 208.5,-1105.85 201.5,-1105.85"/>
</g>
<!-- 6bdddb507f1e40cfa2ad09b5220527df -->
<g id="node12" class="node">
<title>6bdddb507f1e40cfa2ad09b5220527df</title>
<image xlink:href="./icons/sample_01.svg" width="101px" height="101px" preserveAspectRatio="xMinYMin meet" x="155" y="-1458"/>
<text text-anchor="middle" x="205.5" y="-1342" font-family="Sans-Serif" font-size="10.00" fill="#2d3436">local.private_key_filename</text>
</g>
<!-- e6113e7d68cc43de9ed68f19ecc8f1d5&#45;&gt;6bdddb507f1e40cfa2ad09b5220527df -->
<g id="edge11" class="edge">
<title>e6113e7d68cc43de9ed68f19ecc8f1d5&#45;&gt;6bdddb507f1e40cfa2ad09b5220527df</title>
<path fill="none" stroke="#7b8894" d="M963,-1518.16C963,-1511.04 963,-1506.33 963,-1506.33 963,-1506.33 205,-1506.33 205,-1506.33 205,-1506.33 205,-1487.39 205,-1487.39"/>
<polygon fill="#7b8894" stroke="#7b8894" points="208.5,-1487.39 205,-1477.39 201.5,-1487.39 208.5,-1487.39"/>
</g>
<!-- f5295e037d0749469b922968b23fafa2 -->
<g id="node16" class="node">
<title>f5295e037d0749469b922968b23fafa2</title>
<image xlink:href="./icons/sample_02.svg" width="101px" height="101px" preserveAspectRatio="xMinYMin meet" x="775" y="-1102"/>
<text text-anchor="middle" x="825.5" y="-986" font-family="Sans-Serif" font-size="10.00" fill="#2d3436">provider[&quot;registry.terraform.io/hashicorp/aws&quot;]</text>
</g>
<!-- e6113e7d68cc43de9ed68f19ecc8f1d5&#45;&gt;f5295e037d0749469b922968b23fafa2 -->
<g id="edge9" class="edge">
<title>e6113e7d68cc43de9ed68f19ecc8f1d5&#45;&gt;f5295e037d0749469b922968b23fafa2</title>
<path fill="none" stroke="#7b8894" d="M997,-1518.32C997,-1504.79 997,-1494.67 997,-1494.67 997,-1494.67 842,-1494.67 842,-1494.67 842,-1494.67 842,-1131.29 842,-1131.29"/>
<polygon fill="#7b8894" stroke="#7b8894" points="845.5,-1131.29 842,-1121.29 838.5,-1131.29 845.5,-1131.29"/>
</g>
<!-- 3719bb127f774dcf9a9ef94862361588 -->
<g id="node23" class="node">
<title>3719bb127f774dcf9a9ef94862361588</title>
<image xlink:href="./icons/sample_01.svg" width="101px" height="101px" preserveAspectRatio="xMinYMin meet" x="775" y="-1637"/>
<text text-anchor="middle" x="825.5" y="-1521" font-family="Sans-Serif" font-size="10.00" fill="#2d3436">tls_private_key.hashicat</text>
</g>
<!-- e6113e7d68cc43de9ed68f19ecc8f1d5&#45;&gt;3719bb127f774dcf9a9ef94862361588 -->
<g id="edge10" class="edge">
<title>e6113e7d68cc43de9ed68f19ecc8f1d5&#45;&gt;3719bb127f774dcf9a9ef94862361588</title>
<path fill="none" stroke="#7b8894" d="M930.18,-1586.5C930.18,-1586.5 887.35,-1586.5 887.35,-1586.5"/>
<polygon fill="#7b8894" stroke="#7b8894" points="887.35,-1583 877.35,-1586.5 887.35,-1590 887.35,-1583"/>
</g>
<!-- 3fe7234060d34b1c8a0616386ba324e8 -->
<g id="node6" class="node">
<title>3fe7234060d34b1c8a0616386ba324e8</title>
<image xlink:href="./icons/sample_01.svg" width="101px" height="101px" preserveAspectRatio="xMinYMin meet" x="465" y="-922"/>
<text text-anchor="middle" x="515.5" y="-806" font-family="Sans-Serif" font-size="10.00" fill="#2d3436">aws_route_table.hashicat</text>
</g>
<!-- 3fe7234060d34b1c8a0616386ba324e8&#45;&gt;8e3e5d0b6c7243659417e095ffa544e8 -->
<g id="edge12" class="edge">
<title>3fe7234060d34b1c8a0616386ba324e8&#45;&gt;8e3e5d0b6c7243659417e095ffa544e8</title>
<path fill="none" stroke="#7b8894" d="M465.18,-871.5C465.18,-871.5 422.35,-871.5 422.35,-871.5"/>
<polygon fill="#7b8894" stroke="#7b8894" points="422.35,-868 412.35,-871.5 422.35,-875 422.35,-868"/>
</g>
<!-- 4cb54b50782042d4adb99569afcf6341 -->
<g id="node7" class="node">
<title>4cb54b50782042d4adb99569afcf6341</title>
<image xlink:href="./icons/sample_01.svg" width="101px" height="101px" preserveAspectRatio="xMinYMin meet" x="620" y="-922"/>
<text text-anchor="middle" x="670.5" y="-806" font-family="Sans-Serif" font-size="10.00" fill="#2d3436">aws_route_table_association.hashicat</text>
</g>
<!-- 4cb54b50782042d4adb99569afcf6341&#45;&gt;3fe7234060d34b1c8a0616386ba324e8 -->
<g id="edge13" class="edge">
<title>4cb54b50782042d4adb99569afcf6341&#45;&gt;3fe7234060d34b1c8a0616386ba324e8</title>
<path fill="none" stroke="#7b8894" d="M620.18,-871.5C620.18,-871.5 577.35,-871.5 577.35,-871.5"/>
<polygon fill="#7b8894" stroke="#7b8894" points="577.35,-868 567.35,-871.5 577.35,-875 577.35,-868"/>
</g>
<!-- 4cb54b50782042d4adb99569afcf6341&#45;&gt;8d96fdc4e2144235bc69dda3633f24e0 -->
<g id="edge14" class="edge">
<title>4cb54b50782042d4adb99569afcf6341&#45;&gt;8d96fdc4e2144235bc69dda3633f24e0</title>
<path fill="none" stroke="#7b8894" d="M670,-939.71C670,-952.27 670,-961.5 670,-961.5 670,-961.5 515,-961.5 515,-961.5 515,-961.5 515,-992.58 515,-992.58"/>
<polygon fill="#7b8894" stroke="#7b8894" points="511.5,-992.58 515,-1002.58 518.5,-992.58 511.5,-992.58"/>
</g>
<!-- e835569736fa45d98c6640ab2bdc0ba5&#45;&gt;1be4d1fa031a4d32800e97487075e416 -->
<g id="edge15" class="edge">
<title>e835569736fa45d98c6640ab2bdc0ba5&#45;&gt;1be4d1fa031a4d32800e97487075e416</title>
<path fill="none" stroke="#7b8894" d="M465,-1229C465,-1229 267.49,-1229 267.49,-1229"/>
<polygon fill="#7b8894" stroke="#7b8894" points="267.49,-1225.5 257.49,-1229 267.49,-1232.5 267.49,-1225.5"/>
</g>
<!-- 8d96fdc4e2144235bc69dda3633f24e0&#45;&gt;1be4d1fa031a4d32800e97487075e416 -->
<g id="edge16" class="edge">
<title>8d96fdc4e2144235bc69dda3633f24e0&#45;&gt;1be4d1fa031a4d32800e97487075e416</title>
<path fill="none" stroke="#7b8894" d="M465,-1130.5C465,-1130.5 267.49,-1130.5 267.49,-1130.5"/>
<polygon fill="#7b8894" stroke="#7b8894" points="267.49,-1127 257.49,-1130.5 267.49,-1134 267.49,-1127"/>
</g>
<!-- dcd56567978648fbbc3e57a14a8f80d3 -->
<g id="node31" class="node">
<title>dcd56567978648fbbc3e57a14a8f80d3</title>
<image xlink:href="./icons/sample_03.svg" width="101px" height="101px" preserveAspectRatio="xMinYMin meet" x="310" y="-1102"/>
<text text-anchor="middle" x="360.5" y="-986" font-family="Sans-Serif" font-size="10.00" fill="#2d3436">var.subnet_prefix</text>
</g>
<!-- 8d96fdc4e2144235bc69dda3633f24e0&#45;&gt;dcd56567978648fbbc3e57a14a8f80d3 -->
<g id="edge17" class="edge">
<title>8d96fdc4e2144235bc69dda3633f24e0&#45;&gt;dcd56567978648fbbc3e57a14a8f80d3</title>
<path fill="none" stroke="#7b8894" d="M465.18,-1062C465.18,-1062 422.35,-1062 422.35,-1062"/>
<polygon fill="#7b8894" stroke="#7b8894" points="422.35,-1058.5 412.35,-1062 422.35,-1065.5 422.35,-1058.5"/>
</g>
<!-- 1be4d1fa031a4d32800e97487075e416&#45;&gt;f5295e037d0749469b922968b23fafa2 -->
<g id="edge18" class="edge">
<title>1be4d1fa031a4d32800e97487075e416&#45;&gt;f5295e037d0749469b922968b23fafa2</title>
<path fill="none" stroke="#7b8894" d="M255.83,-1151C400.64,-1151 808,-1151 808,-1151 808,-1151 808,-1131.3 808,-1131.3"/>
<polygon fill="#7b8894" stroke="#7b8894" points="811.5,-1131.3 808,-1121.3 804.5,-1131.3 811.5,-1131.3"/>
</g>
<!-- 2b26fd4ce18f46da8f9d12a7ef2d3c4b -->
<g id="node24" class="node">
<title>2b26fd4ce18f46da8f9d12a7ef2d3c4b</title>
<image xlink:href="./icons/sample_03.svg" width="101px" height="101px" preserveAspectRatio="xMinYMin meet" x="0" y="-1236"/>
<text text-anchor="middle" x="50.5" y="-1120" font-family="Sans-Serif" font-size="10.00" fill="#2d3436">var.address_space</text>
</g>
<!-- 1be4d1fa031a4d32800e97487075e416&#45;&gt;2b26fd4ce18f46da8f9d12a7ef2d3c4b -->
<g id="edge19" class="edge">
<title>1be4d1fa031a4d32800e97487075e416&#45;&gt;2b26fd4ce18f46da8f9d12a7ef2d3c4b</title>
<path fill="none" stroke="#7b8894" d="M155.18,-1185.5C155.18,-1185.5 112.35,-1185.5 112.35,-1185.5"/>
<polygon fill="#7b8894" stroke="#7b8894" points="112.35,-1182 102.35,-1185.5 112.35,-1189 112.35,-1182"/>
</g>
<!-- 1760c69a13c44bb2aea0ebde4ceb7308 -->
<g id="node29" class="node">
<title>1760c69a13c44bb2aea0ebde4ceb7308</title>
<image xlink:href="./icons/sample_03.svg" width="101px" height="101px" preserveAspectRatio="xMinYMin meet" x="0" y="-1436"/>
<text text-anchor="middle" x="50.5" y="-1320" font-family="Sans-Serif" font-size="10.00" fill="#2d3436">var.prefix</text>
</g>
<!-- 1be4d1fa031a4d32800e97487075e416&#45;&gt;1760c69a13c44bb2aea0ebde4ceb7308 -->
<g id="edge20" class="edge">
<title>1be4d1fa031a4d32800e97487075e416&#45;&gt;1760c69a13c44bb2aea0ebde4ceb7308</title>
<path fill="none" stroke="#7b8894" d="M205,-1253.83C205,-1290.4 205,-1328 205,-1328 205,-1328 112.18,-1328 112.18,-1328"/>
<polygon fill="#7b8894" stroke="#7b8894" points="112.18,-1324.5 102.18,-1328 112.18,-1331.5 112.18,-1324.5"/>
</g>
<!-- 858e044f9ba747ad80c06419949bda4b&#45;&gt;f5295e037d0749469b922968b23fafa2 -->
<g id="edge21" class="edge">
<title>858e044f9ba747ad80c06419949bda4b&#45;&gt;f5295e037d0749469b922968b23fafa2</title>
<path fill="none" stroke="#7b8894" d="M930.18,-1051.5C930.18,-1051.5 887.35,-1051.5 887.35,-1051.5"/>
<polygon fill="#7b8894" stroke="#7b8894" points="887.35,-1048 877.35,-1051.5 887.35,-1055 887.35,-1048"/>
</g>
<!-- 6bdddb507f1e40cfa2ad09b5220527df&#45;&gt;1760c69a13c44bb2aea0ebde4ceb7308 -->
<g id="edge29" class="edge">
<title>6bdddb507f1e40cfa2ad09b5220527df&#45;&gt;1760c69a13c44bb2aea0ebde4ceb7308</title>
<path fill="none" stroke="#7b8894" d="M155.18,-1396.5C155.18,-1396.5 112.35,-1396.5 112.35,-1396.5"/>
<polygon fill="#7b8894" stroke="#7b8894" points="112.35,-1393 102.35,-1396.5 112.35,-1400 112.35,-1393"/>
</g>
<!-- 4a01f57388ab44f8bd680b91a502d369 -->
<g id="node13" class="node">
<title>4a01f57388ab44f8bd680b91a502d369</title>
<image xlink:href="./icons/sample_01.svg" width="101px" height="101px" preserveAspectRatio="xMinYMin meet" x="1550" y="-477"/>
<text text-anchor="middle" x="1600.5" y="-361" font-family="Sans-Serif" font-size="10.00" fill="#2d3436">null_resource.configure&#45;cat&#45;app</text>
</g>
<!-- 4a01f57388ab44f8bd680b91a502d369&#45;&gt;df399093758b4e1e87e8a93383221b2b -->
<g id="edge22" class="edge">
<title>4a01f57388ab44f8bd680b91a502d369&#45;&gt;df399093758b4e1e87e8a93383221b2b</title>
<path fill="none" stroke="#7b8894" d="M1550.14,-426.5C1356.42,-426.5 670,-426.5 670,-426.5 670,-426.5 670,-523.55 670,-523.55"/>
<polygon fill="#7b8894" stroke="#7b8894" points="666.5,-523.55 670,-533.55 673.5,-523.55 666.5,-523.55"/>
</g>
<!-- 1d2f6f0874c044d9abcf4bfe64805679 -->
<g id="node18" class="node">
<title>1d2f6f0874c044d9abcf4bfe64805679</title>
<image xlink:href="./icons/sample_02.svg" width="101px" height="101px" preserveAspectRatio="xMinYMin meet" x="1395" y="-747"/>
<text text-anchor="middle" x="1445.5" y="-631" font-family="Sans-Serif" font-size="10.00" fill="#2d3436">provider[&quot;registry.terraform.io/hashicorp/null&quot;]</text>
</g>
<!-- 4a01f57388ab44f8bd680b91a502d369&#45;&gt;1d2f6f0874c044d9abcf4bfe64805679 -->
<g id="edge23" class="edge">
<title>4a01f57388ab44f8bd680b91a502d369&#45;&gt;1d2f6f0874c044d9abcf4bfe64805679</title>
<path fill="none" stroke="#7b8894" d="M1570,-494.69C1570,-564.31 1570,-662.25 1570,-662.25 1570,-662.25 1507.29,-662.25 1507.29,-662.25"/>
<polygon fill="#7b8894" stroke="#7b8894" points="1507.29,-658.75 1497.29,-662.25 1507.29,-665.75 1507.29,-658.75"/>
</g>
<!-- ede8981cd0164b3c8482befdc289779a -->
<g id="node26" class="node">
<title>ede8981cd0164b3c8482befdc289779a</title>
<image xlink:href="./icons/sample_03.svg" width="101px" height="101px" preserveAspectRatio="xMinYMin meet" x="1395" y="-119"/>
<text text-anchor="middle" x="1445.5" y="-3" font-family="Sans-Serif" font-size="10.00" fill="#2d3436">var.height</text>
</g>
<!-- 4a01f57388ab44f8bd680b91a502d369&#45;&gt;ede8981cd0164b3c8482befdc289779a -->
<g id="edge24" class="edge">
<title>4a01f57388ab44f8bd680b91a502d369&#45;&gt;ede8981cd0164b3c8482befdc289779a</title>
<path fill="none" stroke="#7b8894" d="M1600,-358.32C1600,-254.45 1600,-68.5 1600,-68.5 1600,-68.5 1507.18,-68.5 1507.18,-68.5"/>
<polygon fill="#7b8894" stroke="#7b8894" points="1507.18,-65 1497.18,-68.5 1507.18,-72 1507.18,-65"/>
</g>
<!-- 1d7ad9b50b54486ca541756791cb6a2b -->
<g id="node28" class="node">
<title>1d7ad9b50b54486ca541756791cb6a2b</title>
<image xlink:href="./icons/sample_03.svg" width="101px" height="101px" preserveAspectRatio="xMinYMin meet" x="1395" y="-567"/>
<text text-anchor="middle" x="1445.5" y="-451" font-family="Sans-Serif" font-size="10.00" fill="#2d3436">var.placeholder</text>
</g>
<!-- 4a01f57388ab44f8bd680b91a502d369&#45;&gt;1d7ad9b50b54486ca541756791cb6a2b -->
<g id="edge25" class="edge">
<title>4a01f57388ab44f8bd680b91a502d369&#45;&gt;1d7ad9b50b54486ca541756791cb6a2b</title>
<path fill="none" stroke="#7b8894" d="M1550.18,-471.5C1550.18,-471.5 1507.35,-471.5 1507.35,-471.5"/>
<polygon fill="#7b8894" stroke="#7b8894" points="1507.35,-468 1497.35,-471.5 1507.35,-475 1507.35,-468"/>
</g>
<!-- 93af2f65f92a46cc9af621484811650f -->
<g id="node32" class="node">
<title>93af2f65f92a46cc9af621484811650f</title>
<image xlink:href="./icons/sample_03.svg" width="101px" height="101px" preserveAspectRatio="xMinYMin meet" x="1395" y="-387"/>
<text text-anchor="middle" x="1445.5" y="-271" font-family="Sans-Serif" font-size="10.00" fill="#2d3436">var.width</text>
</g>
<!-- 4a01f57388ab44f8bd680b91a502d369&#45;&gt;93af2f65f92a46cc9af621484811650f -->
<g id="edge26" class="edge">
<title>4a01f57388ab44f8bd680b91a502d369&#45;&gt;93af2f65f92a46cc9af621484811650f</title>
<path fill="none" stroke="#7b8894" d="M1550.18,-381.5C1550.18,-381.5 1507.35,-381.5 1507.35,-381.5"/>
<polygon fill="#7b8894" stroke="#7b8894" points="1507.35,-378 1497.35,-381.5 1507.35,-385 1507.35,-378"/>
</g>
<!-- 2ef64c85fe8e41e2906153a46ebe1cb7 -->
<g id="node14" class="node">
<title>2ef64c85fe8e41e2906153a46ebe1cb7</title>
<image xlink:href="./icons/sample_01.svg" width="101px" height="101px" preserveAspectRatio="xMinYMin meet" x="1395" y="-1375"/>
<text text-anchor="middle" x="1445.5" y="-1259" font-family="Sans-Serif" font-size="10.00" fill="#2d3436">output.catapp_ip</text>
</g>
<!-- 2ef64c85fe8e41e2906153a46ebe1cb7&#45;&gt;d1cf0b3df4b9410b94850e9860718313 -->
<g id="edge30" class="edge">
<title>2ef64c85fe8e41e2906153a46ebe1cb7&#45;&gt;d1cf0b3df4b9410b94850e9860718313</title>
<path fill="none" stroke="#7b8894" d="M1395.01,-1277C1349.61,-1277 1290,-1277 1290,-1277 1290,-1277 1290,-1266.14 1290,-1266.14"/>
<polygon fill="#7b8894" stroke="#7b8894" points="1293.5,-1266.14 1290,-1256.14 1286.5,-1266.14 1293.5,-1266.14"/>
</g>
<!-- 85b2e76d2b7d407fbee4181ef072658f -->
<g id="node15" class="node">
<title>85b2e76d2b7d407fbee4181ef072658f</title>
<image xlink:href="./icons/sample_01.svg" width="101px" height="101px" preserveAspectRatio="xMinYMin meet" x="1395" y="-1195"/>
<text text-anchor="middle" x="1445.5" y="-1079" font-family="Sans-Serif" font-size="10.00" fill="#2d3436">output.catapp_url</text>
</g>
<!-- 85b2e76d2b7d407fbee4181ef072658f&#45;&gt;d1cf0b3df4b9410b94850e9860718313 -->
<g id="edge31" class="edge">
<title>85b2e76d2b7d407fbee4181ef072658f&#45;&gt;d1cf0b3df4b9410b94850e9860718313</title>
<path fill="none" stroke="#7b8894" d="M1395.18,-1165.5C1395.18,-1165.5 1352.35,-1165.5 1352.35,-1165.5"/>
<polygon fill="#7b8894" stroke="#7b8894" points="1352.35,-1162 1342.35,-1165.5 1352.35,-1169 1352.35,-1162"/>
</g>
<!-- f5295e037d0749469b922968b23fafa2&#45;&gt;df399093758b4e1e87e8a93383221b2b -->
<g id="edge32" class="edge">
<title>f5295e037d0749469b922968b23fafa2&#45;&gt;df399093758b4e1e87e8a93383221b2b</title>
<path fill="none" stroke="#7b8894" d="M825,-983.29C825,-870.48 825,-657.33 825,-657.33 825,-657.33 732.18,-657.33 732.18,-657.33"/>
<polygon fill="#7b8894" stroke="#7b8894" points="732.18,-653.83 722.18,-657.33 732.18,-660.83 732.18,-653.83"/>
</g>
<!-- f5295e037d0749469b922968b23fafa2&#45;&gt;4cb54b50782042d4adb99569afcf6341 -->
<g id="edge33" class="edge">
<title>f5295e037d0749469b922968b23fafa2&#45;&gt;4cb54b50782042d4adb99569afcf6341</title>
<path fill="none" stroke="#7b8894" d="M800,-983.19C800,-950.34 800,-918 800,-918 800,-918 732.45,-918 732.45,-918"/>
<polygon fill="#7b8894" stroke="#7b8894" points="732.45,-914.5 722.45,-918 732.45,-921.5 732.45,-914.5"/>
</g>
<!-- cc752400a60d4971a34a71dab33f800a -->
<g id="node30" class="node">
<title>cc752400a60d4971a34a71dab33f800a</title>
<image xlink:href="./icons/sample_03.svg" width="101px" height="101px" preserveAspectRatio="xMinYMin meet" x="620" y="-1102"/>
<text text-anchor="middle" x="670.5" y="-986" font-family="Sans-Serif" font-size="10.00" fill="#2d3436">var.region</text>
</g>
<!-- f5295e037d0749469b922968b23fafa2&#45;&gt;cc752400a60d4971a34a71dab33f800a -->
<g id="edge27" class="edge">
<title>f5295e037d0749469b922968b23fafa2&#45;&gt;cc752400a60d4971a34a71dab33f800a</title>
<path fill="none" stroke="#7b8894" d="M775.18,-1051.5C775.18,-1051.5 732.35,-1051.5 732.35,-1051.5"/>
<polygon fill="#7b8894" stroke="#7b8894" points="732.35,-1048 722.35,-1051.5 732.35,-1055 732.35,-1048"/>
</g>
<!-- 1e36c01bd3354ffa9ffc4a0ece192011 -->
<g id="node17" class="node">
<title>1e36c01bd3354ffa9ffc4a0ece192011</title>
<image xlink:href="./icons/sample_01.svg" width="101px" height="101px" preserveAspectRatio="xMinYMin meet" x="1550" y="-1285"/>
<text text-anchor="middle" x="1600.5" y="-1169" font-family="Sans-Serif" font-size="10.00" fill="#2d3436">provider[&quot;registry.terraform.io/hashicorp/aws&quot;]</text>
</g>
<!-- 1d2f6f0874c044d9abcf4bfe64805679&#45;&gt;4a01f57388ab44f8bd680b91a502d369 -->
<g id="edge34" class="edge">
<title>1d2f6f0874c044d9abcf4bfe64805679&#45;&gt;4a01f57388ab44f8bd680b91a502d369</title>
<path fill="none" stroke="#7b8894" d="M1495.63,-696.5C1537.37,-696.5 1590,-696.5 1590,-696.5 1590,-696.5 1590,-506.49 1590,-506.49"/>
<polygon fill="#7b8894" stroke="#7b8894" points="1593.5,-506.49 1590,-496.49 1586.5,-506.5 1593.5,-506.49"/>
</g>
<!-- 7429bbb2baaf4005a69541ec176f8cf7 -->
<g id="node19" class="node">
<title>7429bbb2baaf4005a69541ec176f8cf7</title>
<image xlink:href="./icons/sample_01.svg" width="101px" height="101px" preserveAspectRatio="xMinYMin meet" x="1550" y="-1465"/>
<text text-anchor="middle" x="1600.5" y="-1349" font-family="Sans-Serif" font-size="10.00" fill="#2d3436">provider[&quot;registry.terraform.io/hashicorp/null&quot;]</text>
</g>
<!-- a8807ee350864b86bdedfa55ee8c547d -->
<g id="node20" class="node">
<title>a8807ee350864b86bdedfa55ee8c547d</title>
<image xlink:href="./icons/sample_02.svg" width="101px" height="101px" preserveAspectRatio="xMinYMin meet" x="620" y="-1637"/>
<text text-anchor="middle" x="670.5" y="-1521" font-family="Sans-Serif" font-size="10.00" fill="#2d3436">provider[&quot;registry.terraform.io/hashicorp/tls&quot;]</text>
</g>
<!-- a8807ee350864b86bdedfa55ee8c547d&#45;&gt;3719bb127f774dcf9a9ef94862361588 -->
<g id="edge35" class="edge">
<title>a8807ee350864b86bdedfa55ee8c547d&#45;&gt;3719bb127f774dcf9a9ef94862361588</title>
<path fill="none" stroke="#7b8894" d="M720.82,-1609.33C720.82,-1609.33 763.65,-1609.33 763.65,-1609.33"/>
<polygon fill="#7b8894" stroke="#7b8894" points="763.65,-1612.83 773.65,-1609.33 763.65,-1605.83 763.65,-1612.83"/>
</g>
<!-- 2ab78b6ba3d4471ab629b80f22fb0812 -->
<g id="node21" class="node">
<title>2ab78b6ba3d4471ab629b80f22fb0812</title>
<image xlink:href="./icons/sample_01.svg" width="101px" height="101px" preserveAspectRatio="xMinYMin meet" x="1550" y="-1645"/>
<text text-anchor="middle" x="1600.5" y="-1529" font-family="Sans-Serif" font-size="10.00" fill="#2d3436">provider[&quot;registry.terraform.io/hashicorp/tls&quot;]</text>
</g>
<!-- 5fbc9558c8264b0eb089121a49f613af -->
<g id="node22" class="node">
<title>5fbc9558c8264b0eb089121a49f613af</title>
<image xlink:href="./icons/sample_01.svg" width="101px" height="101px" preserveAspectRatio="xMinYMin meet" x="1550" y="-1105"/>
<text text-anchor="middle" x="1600.5" y="-989" font-family="Sans-Serif" font-size="10.00" fill="#2d3436">root</text>
</g>
<!-- 5fbc9558c8264b0eb089121a49f613af&#45;&gt;2ef64c85fe8e41e2906153a46ebe1cb7 -->
<g id="edge37" class="edge">
<title>5fbc9558c8264b0eb089121a49f613af&#45;&gt;2ef64c85fe8e41e2906153a46ebe1cb7</title>
<path fill="none" stroke="#7b8894" d="M1550.18,-1099.5C1531.15,-1099.5 1514,-1099.5 1514,-1099.5 1514,-1099.5 1514,-1279.5 1514,-1279.5 1514,-1279.5 1507.16,-1279.5 1507.16,-1279.5"/>
<polygon fill="#7b8894" stroke="#7b8894" points="1507.16,-1276 1497.16,-1279.5 1507.16,-1283 1507.16,-1276"/>
</g>
<!-- 5fbc9558c8264b0eb089121a49f613af&#45;&gt;85b2e76d2b7d407fbee4181ef072658f -->
<g id="edge38" class="edge">
<title>5fbc9558c8264b0eb089121a49f613af&#45;&gt;85b2e76d2b7d407fbee4181ef072658f</title>
<path fill="none" stroke="#7b8894" d="M1550.18,-1087.75C1550.18,-1087.75 1507.35,-1087.75 1507.35,-1087.75"/>
<polygon fill="#7b8894" stroke="#7b8894" points="1507.35,-1084.25 1497.35,-1087.75 1507.35,-1091.25 1507.35,-1084.25"/>
</g>
<!-- 5fbc9558c8264b0eb089121a49f613af&#45;&gt;f5295e037d0749469b922968b23fafa2 -->
<g id="edge39" class="edge">
<title>5fbc9558c8264b0eb089121a49f613af&#45;&gt;f5295e037d0749469b922968b23fafa2</title>
<path fill="none" stroke="#7b8894" d="M1610,-986.24C1610,-926.6 1610,-849.5 1610,-849.5 1610,-849.5 850,-849.5 850,-849.5 850,-849.5 850,-971.6 850,-971.6"/>
<polygon fill="#7b8894" stroke="#7b8894" points="846.5,-971.6 850,-981.6 853.5,-971.6 846.5,-971.6"/>
</g>
<!-- 5fbc9558c8264b0eb089121a49f613af&#45;&gt;1d2f6f0874c044d9abcf4bfe64805679 -->
<g id="edge40" class="edge">
<title>5fbc9558c8264b0eb089121a49f613af&#45;&gt;1d2f6f0874c044d9abcf4bfe64805679</title>
<path fill="none" stroke="#7b8894" d="M1630,-986.24C1630,-891.25 1630,-730.75 1630,-730.75 1630,-730.75 1507.43,-730.75 1507.43,-730.75"/>
<polygon fill="#7b8894" stroke="#7b8894" points="1507.43,-727.25 1497.43,-730.75 1507.43,-734.25 1507.43,-727.25"/>
</g>
<!-- 5fbc9558c8264b0eb089121a49f613af&#45;&gt;a8807ee350864b86bdedfa55ee8c547d -->
<g id="edge41" class="edge">
<title>5fbc9558c8264b0eb089121a49f613af&#45;&gt;a8807ee350864b86bdedfa55ee8c547d</title>
<path fill="none" stroke="#7b8894" d="M1550.36,-1111.25C1539.91,-1111.25 1532,-1111.25 1532,-1111.25 1532,-1111.25 1532,-1479.5 1532,-1479.5 1532,-1479.5 670,-1479.5 670,-1479.5 670,-1479.5 670,-1506.62 670,-1506.62"/>
<polygon fill="#7b8894" stroke="#7b8894" points="666.5,-1506.62 670,-1516.62 673.5,-1506.62 666.5,-1506.62"/>
</g>
<!-- 39d14603025e45fc8171a98a7cab7f5c -->
<g id="node25" class="node">
<title>39d14603025e45fc8171a98a7cab7f5c</title>
<image xlink:href="./icons/sample_03.svg" width="101px" height="101px" preserveAspectRatio="xMinYMin meet" x="1395" y="-1015"/>
<text text-anchor="middle" x="1445.5" y="-899" font-family="Sans-Serif" font-size="10.00" fill="#2d3436">var.admin_username</text>
</g>
<!-- 5fbc9558c8264b0eb089121a49f613af&#45;&gt;39d14603025e45fc8171a98a7cab7f5c -->
<g id="edge36" class="edge">
<title>5fbc9558c8264b0eb089121a49f613af&#45;&gt;39d14603025e45fc8171a98a7cab7f5c</title>
<path fill="none" stroke="#7b8894" d="M1550.18,-1009.5C1550.18,-1009.5 1507.35,-1009.5 1507.35,-1009.5"/>
<polygon fill="#7b8894" stroke="#7b8894" points="1507.35,-1006 1497.35,-1009.5 1507.35,-1013 1507.35,-1006"/>
</g>
<!-- 3719bb127f774dcf9a9ef94862361588&#45;&gt;a8807ee350864b86bdedfa55ee8c547d -->
<g id="edge28" class="edge">
<title>3719bb127f774dcf9a9ef94862361588&#45;&gt;a8807ee350864b86bdedfa55ee8c547d</title>
<path fill="none" stroke="#7b8894" d="M775.18,-1563.67C775.18,-1563.67 732.35,-1563.67 732.35,-1563.67"/>
<polygon fill="#7b8894" stroke="#7b8894" points="732.35,-1560.17 722.35,-1563.67 732.35,-1567.17 732.35,-1560.17"/>
</g>
</g>
</svg>
